<svg width="44" height="44" viewBox="0 0 22 22" xmlns="http://www.w3.org/2000/svg">
  <g transform="translate(2, 2) scale(0.818)">
    <path d="M11 2C5.477 2 1 5.925 1 10.75c0 2.653 1.411 4.975 3.594 6.422-.44 1.706-1.542 3.125-1.636 3.266-.118.175-.027.408.181.45.197.04 2.802.261 4.791-1.127A10.741 10.741 0 0 0 11 19.5c5.523 0 10-3.925 10-8.75S16.523 2 11 2zM6.5 11.5a1 1 0 1 1 0-2 1 1 0 0 1 0 2zm4.5 0a1 1 0 1 1 0-2 1 1 0 0 1 0 2zm4.5 0a1 1 0 1 1 0-2 1 1 0 0 1 0 2z" fill="#000000"/>
  </g>
</svg>