<svg width="44" height="44" viewBox="0 0 22 22" xmlns="http://www.w3.org/2000/svg">
  <g transform="translate(2, 2) scale(0.818)">
    <path d="M11 3.5c4.694 0 8.5 3.246 8.5 7.25 0 3.79-3.327 6.944-7.697 7.218-.696.044-1.396-.062-2.072-.315l-.265-.1-.284.053c-1.222.23-2.604.286-3.814.153a7.35 7.35 0 0 0 1.252-2.317l.08-.242-.234-.146A6.87 6.87 0 0 1 2.5 10.75c0-4.004 3.806-7.25 8.5-7.25M11 2C5.477 2 1 5.925 1 10.75c0 2.653 1.411 4.975 3.594 6.422-.44 1.706-1.542 3.125-1.636 3.266-.118.175-.027.408.181.45.197.04 2.802.261 4.791-1.127A10.741 10.741 0 0 0 11 19.5c5.523 0 10-3.925 10-8.75S16.523 2 11 2z" fill="#000000"/>
  </g>
</svg>